<!DOCTYPE svg PUBLIC "-//W3C//DTD SVG 1.1//EN" "http://www.w3.org/Graphics/SVG/1.1/DTD/svg11.dtd">
<!-- Uploaded to: SVG Repo, www.svgrepo.com, Transformed by: SVG Repo Mixer Tools -->
<svg width="800px" height="800px" viewBox="0 0 24 24" xmlns="http://www.w3.org/2000/svg" fill="#ffffff" stroke="#ffffff">
<g id="SVGRepo_bgCarrier" stroke-width="0"/>
<g id="SVGRepo_tracerCarrier" stroke-linecap="round" stroke-linejoin="round"/>
<g id="SVGRepo_iconCarrier">
<path d="M10 15h12v1H10zm-4-3h2v-2H6zm4-1h12v-1H10zm-4 6h2v-2H6zm4 4h12v-1H10zm-4 1h2v-2H6zM23 3v3a1.001 1.001 0 0 1-1 1H2a1.001 1.001 0 0 1-1-1V3a1.001 1.001 0 0 1 1-1h20a1.001 1.001 0 0 1 1 1zm-.999 3H22V3H2v3h20.001z"/>
<path fill="none" d="M0 0h24v24H0z"/>
</g>
</svg>